<svg width="900" height="620" viewBox="0 0 900 620" fill="none" xmlns="http://www.w3.org/2000/svg" role="img" aria-label="HausaLearn Tech logo">
  <defs>
    <linearGradient id="kore" x1="0" y1="0" x2="0.35" y2="1">
      <stop offset="0" stop-color="#41A98A"/><stop offset="1" stop-color="#2F8468"/>
    </linearGradient>
    <linearGradient id="shudi" x1="0.2" y1="0" x2="0.6" y2="1">
      <stop offset="0" stop-color="#3E6E9C"/><stop offset="1" stop-color="#2B4E73"/>
    </linearGradient>
    <linearGradient id="swoosh" x1="0" y1="1" x2="1" y2="0">
      <stop offset="0" stop-color="#35A07E"/><stop offset="1" stop-color="#35608C"/>
    </linearGradient>
  </defs>

  <!-- MARK -->
  <g transform="translate(271,26) scale(0.62)">
    <path d="M182 232 C 220 292, 292 292, 330 218" fill="none" stroke="url(#swoosh)" stroke-width="34" stroke-linecap="round"/>
    <rect x="159" y="120" width="46" height="272" rx="20" fill="url(#kore)"/>
    <rect x="307" y="120" width="46" height="272" rx="20" fill="url(#shudi)"/>
    <g stroke="#2B4E73" stroke-width="9" stroke-linecap="round">
      <path d="M353 166 H 396" fill="none"/>
      <path d="M353 208 H 380 V 244" fill="none"/>
      <path d="M408 166 V 198" fill="none"/>
    </g>
    <circle cx="408" cy="166" r="14" fill="#41A98A"/>
    <circle cx="380" cy="256" r="14" fill="#3E6E9C"/>
    <circle cx="408" cy="208" r="10" fill="#2F8468"/>
  </g>

  <!-- WORDMARK -->
  <text x="450" y="430" text-anchor="middle" font-family="Montserrat" font-weight="800" font-size="92" letter-spacing="-1">
    <tspan fill="#2F8468">Hausa</tspan><tspan fill="#2B4E73">Learn</tspan>
  </text>

  <!-- TECH with flanking rules -->
  <rect x="330" y="481" width="70" height="6" rx="3" fill="#41A98A"/>
  <rect x="500" y="481" width="70" height="6" rx="3" fill="#3E6E9C"/>
  <text x="450" y="505" text-anchor="middle" font-family="Montserrat" font-weight="700" font-size="66" fill="#14304A" letter-spacing="2">Tech</text>

  <!-- TAGLINE -->
  <text x="450" y="565" text-anchor="middle" font-family="Montserrat" font-weight="600" font-size="30" fill="#35608C" letter-spacing="0.5">Koyi Fasahar Zamani a Saukake</text>
</svg>
